PathFileType	4	(X/Y/Z)	/Users/itak/Documents/Research/Walk-IL/dataset/trc/00056_00006.trc
DataRate	CameraRate	NumFrames	NumMarkers	Units	OrigDataRate	OrigDataStartFrame	OrigNumFrames
100.000000	100.000000	4	54	mm	100.000000	255	510
Frame#	Time	RPSI			LPSI			L3			STRN			T10			C7			CLAV			RBAK			LBAK			LSHO			LUPA			LAEL			LAOL			LWTS			LWPS			LFRA			LHPS			LHTS			RSHO			RUPA			RAEL			RAOL			RWTS			RWPS			RFRA			RIFD			RHTS			RHPS			RBHD			LFHD			RFHD			LBHD			LHIP			RHIP			RASI			LASI			LKNE			LTHI			LANK			LTIP			LTOE			LMT1			LMT5			LHEE			RKNE			RTHI			RANK			RTIP			RTOE			RMT1			RMT5			RHEE			LIFD			*53			
		X1	Y1	Z1	X2	Y2	Z2	X3	Y3	Z3	X4	Y4	Z4	X5	Y5	Z5	X6	Y6	Z6	X7	Y7	Z7	X8	Y8	Z8	X9	Y9	Z9	X10	Y10	Z10	X11	Y11	Z11	X12	Y12	Z12	X13	Y13	Z13	X14	Y14	Z14	X15	Y15	Z15	X16	Y16	Z16	X17	Y17	Z17	X18	Y18	Z18	X19	Y19	Z19	X20	Y20	Z20	X21	Y21	Z21	X22	Y22	Z22	X23	Y23	Z23	X24	Y24	Z24	X25	Y25	Z25	X26	Y26	Z26	X27	Y27	Z27	X28	Y28	Z28	X29	Y29	Z29	X30	Y30	Z30	X31	Y31	Z31	X32	Y32	Z32	X33	Y33	Z33	X34	Y34	Z34	X35	Y35	Z35	X36	Y36	Z36	X37	Y37	Z37	X38	Y38	Z38	X39	Y39	Z39	X40	Y40	Z40	X41	Y41	Z41	X42	Y42	Z42	X43	Y43	Z43	X44	Y44	Z44	X45	Y45	Z45	X46	Y46	Z46	X47	Y47	Z47	X48	Y48	Z48	X49	Y49	Z49	X50	Y50	Z50	X51	Y51	Z51	X52	Y52	Z52	X53	Y53	Z53	X54	Y54	Z54	

256	2.55	-1.495064377784729	1025.680297851562	-132.9758148193359	-19.81899642944336	1014.858947753906	-306.624267578125	-4.538279056549072	1089.421264648438	-219.685302734375	277.8431091308594	1251.330200195312	-230.395751953125	4.61044979095459	1223.70703125	-216.1810150146484	97.64884185791016	1480.38232421875	-218.8927001953125	262.3389892578125	1368.948974609375	-230.2811126708984	22.3666820526123	1349.674194335938	-139.7364349365234	63.78716278076172	1446.3056640625	-318.0330200195312	160.8083953857422	1437.334350585938	-396.9376831054688	122.9290161132812	1315.818603515625	-474.6066284179688	119.1916198730469	1101.176635742188	-503.913330078125	66.25038909912109	1088.033569335938	-413.0235900878906	214.7956848144531	861.739013671875	-452.77880859375	147.7620849609375	849.3997802734375	-502.9882507324219	136.0256195068359	991.4524536132812	-514.9796752929688	181.3571014404297	768.1873168945312	-500.8967895507812	236.6882019042969	779.7498168945312	-457.3809204101562	168.0522766113281	1433.269897460938	-50.17321014404297	155.0893707275391	1367.050170898438	14.21660900115967	117.9166946411133	1110.661254882812	77.20362091064453	131.4878540039062	1076.714477539062	-15.56984043121338	288.2231750488281	875.71044921875	52.86995315551758	222.4420166015625	851.68115234375	104.8746719360352	136.9998321533203	1029.775390625	93.56646728515625	321.8914794921875	691.9636840820312	38.12261581420898	328.9992370605469	779.2842407226562	56.72843551635742	273.9903869628906	768.7900390625	109.8812942504883	176.3805847167969	1663.974243164062	-280.6005554199219	350.7888488769531	1641.256591796875	-155.2306671142578	354.4547424316406	1649.909545898438	-280.8496704101562	179.8419799804688	1645.267456054688	-143.9058532714844	84.03481292724609	954.1740112304688	-405.8402099609375	59.43033981323242	945.5741577148438	-60.35271835327148	184.7778625488281	954.4891357421875	-85.04913330078125	190.0211639404297	958.825927734375	-351.1412658691406	314.6266174316406	529.54931640625	-360.4511108398438	236.0397186279297	655.4873657226562	-399.1708984375	178.4566040039062	68.59123992919922	-400.0005798339844	242.1244201660156	283.68115234375	-396.1713562011719	378.9390869140625	63.28022384643555	-418.8463134765625	340.0447387695312	59.60969161987305	-359.4660339355469	273.9774475097656	55.32883834838867	-450.1764221191406	134.9878082275391	67.21159362792969	-319.146484375	130.8134155273438	496.8638916015625	-109.1474838256836	138.3173980712891	766.8452758789062	-65.80330657958984	-61.72898483276367	47.1580924987793	-136.8930816650391	88.17038726806641	373.7073669433594	-108.7079391479492	150.7926025390625	37.32187652587891	-173.9794464111328	90.402587890625	40.29254913330078	-214.3509979248047	63.57285308837891	45.08080291748047	-120.1761779785156	-111.3065948486328	55.62708282470703	-193.3137054443359	233.6246643066406	674.837158203125	-433.8147583007812	nan	nan	nan	
257	2.56	-8.300626754760742	1026.905029296875	-131.8332824707031	-26.87494468688965	1016.160400390625	-305.4405212402344	-11.3810453414917	1090.67041015625	-218.7252044677734	270.7127685546875	1252.803100585938	-229.5756225585938	-2.594613790512085	1225.011840820312	-215.4044647216797	90.34061431884766	1481.706665039062	-218.3529815673828	255.1286010742188	1370.425170898438	-229.456787109375	15.04176425933838	1351.000122070312	-139.2083282470703	56.58378982543945	1447.616455078125	-317.4764709472656	153.7328796386719	1438.7978515625	-396.2361145019531	116.1918792724609	1317.257446289062	-474.0289611816406	113.2998657226562	1102.563598632812	-503.3696899414062	59.74230194091797	1089.358520507812	-412.7993774414062	209.4023895263672	863.545166015625	-451.1947631835938	142.7816314697266	850.8810424804688	-501.8898620605469	130.6953125	992.8805541992188	-514.1636962890625	176.6754302978516	769.7980346679688	-499.4662475585938	231.5894622802734	781.5783081054688	-455.5093688964844	160.5606384277344	1434.747314453125	-49.53759765625	147.3046722412109	1368.701538085938	14.8746395111084	108.503173828125	1112.795776367188	78.10536193847656	122.2317733764648	1078.594360351562	-14.36512851715088	276.7615966796875	876.2134399414062	55.23040008544922	210.6950836181641	853.1275634765625	107.2388305664062	127.0078887939453	1032.000854492188	94.94907379150391	308.33837890625	691.982666015625	41.25602722167969	316.451904296875	779.315673828125	59.51525497436523	261.247314453125	769.6935424804688	112.6341781616211	169.2898559570312	1665.568603515625	-279.6578674316406	343.4272766113281	1642.457275390625	-154.0291900634766	347.3480529785156	1651.366088867188	-279.6257019042969	172.5027923583984	1646.569091796875	-142.9897003173828	76.83139801025391	955.4799194335938	-404.7362365722656	52.73933792114258	946.7144165039062	-59.30736923217773	177.9615173339844	955.7506713867188	-84.04433441162109	182.9190826416016	960.026611328125	-350.1605529785156	306.1420288085938	529.236572265625	-360.6468200683594	228.1620025634766	656.4170532226562	-398.244873046875	150.4813690185547	73.29792785644531	-398.8807678222656	222.7161407470703	285.8599853515625	-395.5933532714844	350.4208374023438	62.86783981323242	-419.39404296875	312.0528869628906	59.89916229248047	-359.7757873535156	245.0478668212891	57.67768859863281	-449.9103393554688	107.7077560424805	73.08990478515625	-317.6063842773438	125.879150390625	498.1488647460938	-108.4488525390625	131.9320526123047	767.9945678710938	-64.90325164794922	-61.89870071411133	46.61680221557617	-136.9359436035156	84.44158172607422	374.6340637207031	-108.2623062133789	150.7983093261719	37.3199577331543	-173.9944000244141	90.351806640625	40.32559585571289	-214.3153686523438	63.57162094116211	45.1206169128418	-120.2846298217773	-111.3246154785156	54.75384140014648	-193.3893432617188	228.6325225830078	676.6840209960938	-431.8027954101562	nan	nan	nan	
258	2.57	-15.0518856048584	1028.0869140625	-130.8091735839844	-33.73834609985352	1017.449401855469	-304.3779602050781	-18.07291793823242	1091.861328125	-217.8897705078125	263.6459045410156	1254.224243164062	-228.7483062744141	-9.734274864196777	1226.253540039062	-214.7248992919922	83.07987976074219	1482.981567382812	-217.8765869140625	247.9777679443359	1371.85205078125	-228.6453399658203	7.7174072265625	1352.275634765625	-138.7658386230469	49.46000671386719	1448.857299804688	-316.9905395507812	146.7404479980469	1440.189453125	-395.5791931152344	109.5322418212891	1318.641723632812	-473.5072326660156	107.4183502197266	1103.909301757812	-502.9296569824219	53.30304336547852	1090.629028320312	-412.6769409179688	204.0924987792969	865.3590087890625	-449.6790161132812	137.8942413330078	852.3207397460938	-500.8171081542969	125.390739440918	994.26123046875	-513.4266357421875	172.1168670654297	771.3875122070312	-498.0439147949219	226.660888671875	783.454833984375	-453.6933898925781	153.0606994628906	1436.189086914062	-48.94252014160156	139.5074310302734	1370.311157226562	15.4875431060791	99.08715057373047	1114.921752929688	79.02134704589844	112.9621658325195	1080.434936523438	-13.24131393432617	265.2113037109375	876.6809692382812	57.48088836669922	198.8460693359375	854.540283203125	109.4824600219727	116.9263534545898	1034.183837890625	96.21467590332031	294.6981811523438	691.99609375	44.24751281738281	303.7990112304688	779.326904296875	62.18051910400391	248.3930511474609	770.56689453125	115.2487411499023	162.2023620605469	1667.104248046875	-278.8012084960938	336.0557556152344	1643.67041015625	-152.88330078125	340.2459411621094	1652.810302734375	-278.4608764648438	165.1548614501953	1647.827270507812	-142.1539916992188	69.75458526611328	956.6995849609375	-403.7008972167969	46.19199371337891	947.8224487304688	-58.31575775146484	171.1937255859375	956.97802734375	-83.05808258056641	175.9685821533203	961.1001586914062	-349.2087097167969	297.0317687988281	528.4983520507812	-360.8504638671875	219.9559783935547	657.0132446289062	-397.6024780273438	122.3128509521484	78.41808319091797	-397.6463317871094	202.9570007324219	288.13623046875	-394.9272766113281	321.5982666015625	62.55796051025391	-419.1896362304688	283.5602111816406	60.45928192138672	-359.4348449707031	216.0116119384766	60.21286392211914	-449.2039794921875	80.00666046142578	79.53807067871094	-316.0943908691406	120.9184722900391	499.4172973632812	-107.6458740234375	125.5377807617188	769.1272583007812	-63.96266937255859	-62.07511901855469	46.0912971496582	-136.9225311279297	80.69142913818359	375.5648803710938	-107.7197570800781	150.7934112548828	37.32080459594727	-174.0077362060547	90.29650115966797	40.38327407836914	-214.2409057617188	63.54511642456055	45.10533142089844	-120.3264846801758	-111.3245544433594	53.94015502929688	-193.4037475585938	223.8847808837891	678.60302734375	-429.7999877929688	nan	nan	nan	
259	2.58	-21.75647735595703	1029.212646484375	-129.888916015625	-40.42684555053711	1018.703002929688	-303.4214477539062	-24.65720748901367	1092.980102539062	-217.1640167236328	256.6378784179688	1255.576782226562	-227.9081573486328	-16.81199073791504	1227.416137695312	-214.1385192871094	75.86605072021484	1484.188720703125	-217.4576416015625	240.8803863525391	1373.21044921875	-227.8383026123047	0.3988272845745087	1353.490356445312	-138.4052276611328	42.41753387451172	1450.015502929688	-316.57177734375	139.8365631103516	1441.4951171875	-394.9597473144531	102.9663543701172	1319.95947265625	-473.0381164550781	101.5455856323242	1105.1982421875	-502.5773315429688	46.92680740356445	1091.834594726562	-412.6435852050781	198.8510131835938	867.15478515625	-448.2314758300781	133.0807189941406	853.703369140625	-499.7632141113281	120.0979919433594	995.5797119140625	-512.7621459960938	167.6552734375	772.9357299804688	-496.6251525878906	221.8733520507812	785.3526611328125	-451.9297790527344	145.5491638183594	1437.576293945312	-48.38062286376953	131.6927490234375	1371.8642578125	16.05924415588379	89.66486358642578	1117.025024414062	79.97383880615234	103.6550521850586	1082.22021484375	-12.19904041290283	253.5917663574219	877.115234375	59.61782073974609	186.9150238037109	855.9064331054688	111.5974426269531	106.7709045410156	1036.299072265625	97.3828125	281.0240783691406	692.0170288085938	47.08695983886719	291.0719909667969	779.3276977539062	64.71807098388672	235.4654693603516	771.4061279296875	117.7224884033203	155.1136474609375	1668.555786132812	-278.0272521972656	328.6755981445312	1644.876342773438	-151.788818359375	333.1435852050781	1654.220581054688	-277.3511657714844	157.7900695800781	1649.026245117188	-141.3962860107422	62.80012893676758	957.8187255859375	-402.7379455566406	39.70501327514648	948.885986328125	-57.39432525634766	164.4738159179688	958.1580200195312	-82.10411071777344	169.1533050537109	962.0401611328125	-348.3019409179688	287.3030090332031	527.33154296875	-361.021484375	211.4174194335938	657.2487182617188	-397.1971740722656	94.06794738769531	83.89212799072266	-396.3323669433594	182.9441680908203	290.4577941894531	-394.1734924316406	292.5938110351562	62.3117561340332	-418.2493286132812	254.6872406005859	61.24510955810547	-358.4617919921875	186.9767456054688	62.88653945922852	-448.0870361328125	52.01683044433594	86.50994110107422	-314.6437072753906	115.9478302001953	500.6506958007812	-106.7729339599609	119.1837005615234	770.244384765625	-63.01593399047852	-62.25342559814453	45.57043838500977	-136.8594055175781	76.93398284912109	376.4808044433594	-107.1079940795898	150.7790222167969	37.3245849609375	-174.0202331542969	90.23886871337891	40.45670318603516	-214.13623046875	63.48994064331055	45.03528213500977	-120.3158111572266	-111.3395385742188	53.17745590209961	-193.3732147216797	219.3430938720703	680.5723876953125	-427.817138671875	nan	nan	nan	
